# xmcd
#
# Track frame offsets: 
#        150
#        41673
#        94064
#        133779
#        165227
#        189848
#        228803
#        240784
#
# Disc length: 3825 seconds
#
# Revision: 4
# Processed by: cddbd v1.5.2PL0 Copyright (c) Steve Scherf et al.
# Submitted via: ExactAudioCopy v0.99pb5
#
DISCID=500eef08
DTITLE=Chick Corea - Akoustic Band, Alive
DYEAR=1991
DGENRE=Jazz
TTITLE0=On Green Dolphin Street
TTITLE1=How Deep Is The Ocean?
TTITLE2=Humpty Dumpty
TTITLE3=Sophisticated Lady
TTITLE4=U.M.M.G. (Upper Manhattan Medical Group)
TTITLE5='Round Midnight
TTITLE6=Hackensack
TTITLE7=Morning Sprite
EXTD=YEAR: 1991
EXTT0=
EXTT1=
EXTT2=
EXTT3=
EXTT4=
EXTT5=
EXTT6=
EXTT7=
PLAYORDER=
